<svg width="37" height="61" viewBox="0 0 37 61" fill="none" xmlns="http://www.w3.org/2000/svg">
<path d="M19.9175 26.7722C11.667 24.7728 9.01375 22.7056 9.01375 19.4861C9.01375 15.7922 12.6847 13.2167 18.8271 13.2167C25.2967 13.2167 27.6955 16.0972 27.9136 20.3333H35.946C35.6915 14.5044 31.8752 9.15 24.279 7.42167V0H13.3752V7.32C6.32416 8.74333 0.654223 13.0133 0.654223 19.5539C0.654223 27.3822 7.59627 31.2794 17.7367 33.55C26.8232 35.5833 28.6405 38.5656 28.6405 41.7172C28.6405 44.0556 26.8595 47.7833 18.8271 47.7833C11.3399 47.7833 8.39587 44.6656 7.99607 40.6667H0C0.436149 48.0883 6.39686 52.2567 13.3752 53.6461V61H24.279V53.7139C31.3664 52.46 37 48.6306 37 41.6833C37 32.0589 28.168 28.7717 19.9175 26.7722Z" fill="black"/>
</svg>
